<?xml version="1.0" encoding="UTF-8"?>
<svg version="1.1" viewBox="0 0 1280 814" width="1280" height="814" xmlns="http://www.w3.org/2000/svg">
<path transform="translate(790,220)" d="m0 0h488l-5 5-12 9-21 16-5 4-168 1-19 12-8 5-131 1-18 14-16 12h-2v2h299l-4 4-12 9-21 16-11 8-160 1-17 11-3 2-140 1-36 27 298 1-5 5-14 11-21 16-12 9-152 1-16 10-59 1 13 14 7 8 9 10 2 3 117 1-3 2-127 40-13 4-4-1-12-13-7-8-18-20-7-8-11-12-7-8-18-20-7-8-11-12-7-8-3-4 2-4 10-8 16-13 11-9 16-13 11-9 16-13 22-18 16-13 11-9 3-3-11-10-11-9-13-12-11-9v-4l13-11z" fill="#E0E0E0"/>
<path transform="translate(2,220)" d="m0 0h488l17 14 6 5-2 4-14 12-11 10-11 9-9 8 5 5 14 11 14 12 14 11 13 11 14 11 13 11 14 11 13 11 20 16-2 5-7 7-7 8-11 12-7 8-18 20-7 8-11 12-7 8-18 20-14 16-9-2-137-43v-1l117-1 7-8 10-11 14-16-59-1-16-10-152-1-18-14-12-9-21-16-1-2 298-1-17-13-19-14-140-1-20-13-160-1-20-15-27-21v-1h298v-2l-4-2-19-14-13-10-131-1-22-14-5-3-168-1-11-9-32-24z" fill="#E0E0E0"/>
<path transform="translate(313,1)" d="m0 0h214l10 11 4 5v2h198l2-4 9-11 3-3h214l79 79v74h44l36 24v1h-130l-1-72-55-55h-600l-55 55-1 72h-130l4-4 32-21h44v-74z" fill="#C3851B"/>
<path transform="translate(717,73)" d="m0 0h1l-1 9-5 12-9 11-12 9-6 3h-2l4 6 9 10 9 11 13 14 7 8 11 12 12 13 5 5-10-2-43-11h-3l14 14 7 8 9 9 7 8 8 8 7 8 3 4h-13l-31-1 10 9 11 9 14 12 11 9 4 4-9 8-14 11-17 14-14 11-17 14-10 8-16 13-10 8-11 9-5-2-13-12-11-9-13-12-11-9-13-12-11-9-13-12-11-9-13-12-8-7 4-5 11-9 13-12 6-5 9-11 7-10 10-19 5-15 4-20 1-17h-70l6-11 12-18 3-5 36-1 7-1 10-9 11-9 8-6z" fill="#E0E0E0"/>
<path transform="translate(964,463)" d="m0 0h9v82l-13 8-130 75-24 14-28 16-1 1h45l24-14 104-60 24-14 21-12 1-96h68l-5 5-30 20-1 90-182 105-24 14-28 16-24 14-52 30-24 14-1 19-10 7-19 12-6 3v-95l9-6 28-16 78-45 24-14 28-16 24-14 104-60 10-6z" fill="#C3851A"/>
<path transform="translate(216,463)" d="m0 0h68l1 96 25 14 17 10 130 75 1 1h46l-18-10-24-14-28-16-24-14-78-45-24-14-1-1v-82h9l1 77 78 45 24 14 28 16 24 14 130 75 20 12 1 1v95l-11-6-24-16-1-19-24-14-286-165-24-14-1-90-34-23z" fill="#C3851B"/>
<path transform="translate(749,348)" d="m0 0 41 1v3l-11 9 9 2-1 3-19 14 298 1-5 5-14 11-21 16-12 9-152 1-16 10-59 1 13 14 7 8 9 10 2 3 117 1-3 2-127 40-13 4-4-1-12-13-7-8-18-20-7-8-11-12-7-8-18-20-7-8-11-12-7-8-3-4 2-4 10-8 16-13 9-7h13l13-10z" fill="#828282"/>
<path transform="translate(528,348)" d="m0 0 5 1 15 12 2 1h13l14 11 14 12 9 7-2 5-7 7-7 8-11 12-7 8-18 20-7 8-11 12-7 8-18 20-14 16-9-2-137-43v-1l117-1 7-8 10-11 14-16-59-1-16-10-152-1-18-14-12-9-21-16-1-2 298-1-17-13-3-2v-2l9-2-12-10 1-2z" fill="#828282"/>
<path transform="translate(456,288)" d="m0 0 5 2 14 12 20 16 16 13 13 10h14l9 8 14 11 1 2-2 1h-10l-16-12-3-2-41 1 5 5 7 6-3 2-8 1-15-11-140-1-12-8v-2l8-1v-2l-14-9-159-1-24-18v-1l298-1-14-11-9-7 2-2z" fill="#B4B4B4"/>
<path transform="translate(822,288)" d="m0 0 46 1v4l-16 12-5 4 298 1-5 5-16 12-2 2-160 1-15 10 1 1 8 1-1 3-11 7-140 1-15 11-11-2 4-5 8-6v-1l-41-1-11 8-8 6h-9l-3-2 17-14 8-6h13l16-13 14-11 32-26z" fill="#B4B4B4"/>
<path transform="translate(691,396)" d="m0 0 4 1 12 13 9 10 11 12 9 10 2 2h44l-4-6-11-12v-2l77-1 16-10 151-1 19-14 3-2 11 1-2 4-28 21-152 1-16 10-59 1 13 14 7 8 9 10 2 3 117 1-3 2-127 40-13 4-4-1-12-13-7-8-18-20-7-8-11-12-7-8-18-20-7-8-11-12-6-7v-2z" fill="#5F5F5F"/>
<path transform="translate(243,396)" d="m0 0 5 1 21 15 151 1 16 10 77 1-2 4-11 12-2 4h44l10-10 7-8 11-12 9-10 6-7 3-1 8 1-2 4-12 13-7 8-10 11-7 8-10 11-7 8-11 12-7 8-18 20-14 16-9-2-137-43v-1l117-1 7-8 10-11 14-16-59-1-16-10-152-1-18-14-12-9v-2z" fill="#5F5F5F"/>
<path transform="translate(552,289)" d="m0 0h181l2 2-14 12-14 11-13 11-14 11-4 4 1 1 7 1-2 4-14 11-17 14-11 9-5-2-13-12-11-9-13-12-2-1v-2l8-1v-2l-12-11-11-9-14-13-8-7-9-8z" fill="#B4B4B4"/>
<path transform="translate(602,429)" d="m0 0 4 1 28 28-2 4-12 12-7 8-28 28-4 6 37 7 2 2-17 13-21 16-12 9-21 16-16 12-21 16-12 9-2-1 13-16 10-13 12-15 11-14 9-12h-13l-30-2 4-5 8-7 13-12 10-9 12-11 8-7 13-12 1-1-26-1 6-7 10-10 8-7z" fill="#C3841A"/>
<path transform="translate(675,429)" d="m0 0 4 1 29 29 8 7 11 11v1l-26 1 8 8 8 7 13 12 20 18 12 11 8 7v1l-28 2h-15l10 13 12 15 33 42h-3l-21-16-20-15-38-29-16-12-21-16-3-3 13-3 26-5-6-8-32-32-7-8-8-8 2-4z" fill="#C3841A"/>
<path transform="translate(639,573)" d="m0 0h2l11 34 38 1-5 5-18 13-6 4 1 8 9 27-1 2-17-12-12-9-4 2-17 12-10 7-1-2 10-31v-4l-14-10-15-11v-1l38-1z" fill="#C3851C"/>
<path transform="translate(349,75)" d="m0 0h225l-6 7-1 1-213 1-37 37-1 58h-9v-61l34-34 7-8z" fill="#C38419"/>
<path transform="translate(759,75)" d="m0 0h172l16 17 26 26v61h-9l-1-58-37-37-168-1z" fill="#C38419"/>
<path transform="translate(749,348)" d="m0 0 41 1v3l-11 9 9 2-1 3-10 7-3-1h-9l-3 1h-43l-12-2 5-5 5-4h13l13-10z" fill="#9A9A9A"/>
<path transform="translate(528,348)" d="m0 0 5 1 15 12 2 1h13l10 8v1l-12 2h-43l-3-1h-8l-4 1-11-8v-2l9-2-12-10 1-2z" fill="#9A9A9A"/>
<path transform="translate(619,349)" d="m0 0h41v3l-11 9 9 2-2 4-14 11-4 2-11-9-7-6v-2l9-2-11-10z" fill="#9A9A9A"/>
<path transform="translate(634,371)" d="m0 0h10l3 1-2 4-5 4-5-2-4-4v-2z" fill="#868686"/>
<path transform="translate(782,616)" d="m0 0" fill="#FDFDFD"/>
<path transform="translate(497,616)" d="m0 0" fill="#FDFDFD"/>
</svg>
