<?xml version="1.0" encoding="UTF-8" standalone="no" ?>
<!DOCTYPE svg PUBLIC "-//W3C//DTD SVG 1.1//EN" "http://www.w3.org/Graphics/SVG/1.1/DTD/svg11.dtd">
<svg xmlns="http://www.w3.org/2000/svg" xmlns:xlink="http://www.w3.org/1999/xlink" version="1.1" width="1280" height="1024" viewBox="0 0 1280 1024" xml:space="preserve">
<desc>Created with Fabric.js 5.3.0</desc>
<defs>
</defs>
<g transform="matrix(1 0 0 1 640 512)" id="background-logo"  >
<rect style="stroke: none; stroke-width: 0; stroke-dasharray: none; stroke-linecap: butt; stroke-dashoffset: 0; stroke-linejoin: miter; stroke-miterlimit: 4; fill: rgb(255,255,255); fill-opacity: 0; fill-rule: nonzero; opacity: 1;"  paint-order="stroke"  x="-640" y="-512" rx="0" ry="0" width="1280" height="1024" />
</g>
<g transform="matrix(1.9211538461538462 0 0 1.9211538461538462 640 409.95311057692317)" id="logo-logo"  >
<g style=""  paint-order="stroke"   >
		<g transform="matrix(0.6335896516271974 0 0 0.6335896516271974 3.167951945215e-8 25.24079792887889)"  >
<linearGradient id="SVGID_73_1309" gradientUnits="userSpaceOnUse" gradientTransform="matrix(1 0 0 1 0 0)"  x1="500.3414634" y1="511.865708" x2="500.3414634" y2="601.6519832">
<stop offset="0%" style="stop-color:rgb(239,171,51);stop-opacity: 1"/>
<stop offset="31.17316%" style="stop-color:rgb(160,100,4);stop-opacity: 1"/>
<stop offset="73.74296%" style="stop-color:rgb(239,171,51);stop-opacity: 1"/>
<stop offset="99.99994%" style="stop-color:rgb(160,100,4);stop-opacity: 1"/>
</linearGradient>
<path style="stroke: none; stroke-width: 1; stroke-dasharray: none; stroke-linecap: butt; stroke-dashoffset: 0; stroke-linejoin: miter; stroke-miterlimit: 4; fill: url(#SVGID_73_1309); fill-rule: nonzero; opacity: 1;"  paint-order="stroke"  transform=" translate(-500.3414634, -539.93532955)" d="M 470.8096031 547.427517 L 461.1665367 546.8288842 L 455.8762535 546.5005150999999 L 480.038607 524.5869409 L 470.4768394 524.399685 L 487.9180015 507.43301019999996 L 492.422396 511.93740469999995 L 498.2805503 517.7956810999999 L 498.2805503 518.1360130999999 L 479.51223980000003 537.4441185999999 L 493.7165855 540.1312523999999 L 451.0408043 572.4376488999999 L 470.8096031 547.4275170999999 Z M 502.4023765 518.1360131 L 521.170687 537.4441186 L 506.96634130000007 540.1312524 L 549.6421225 572.4376489 L 529.8733237 547.4275171 L 542.4099448000001 546.6493189 L 544.8066733 546.5005152 L 531.3183921000001 534.2673609 L 520.6443198000001 524.586941 L 522.6118491000001 524.5483668 L 530.2060874000001 524.3996852 L 512.7649253000001 507.4330104 L 509.8716148000001 510.3263209 L 502.4023765000001 517.7956813 L 502.4023765000001 518.1360133 Z" stroke-linecap="round" />
</g>
		<g transform="matrix(0.6335896516271974 0 0 0.6335896516271974 6.335898206089e-8 46.040667529670884)"  >
<linearGradient id="SVGID_74_1310" gradientUnits="userSpaceOnUse" gradientTransform="matrix(1 0 0 1 0 0)"  x1="500.3414634" y1="511.865708" x2="500.3414634" y2="601.6519832">
<stop offset="0%" style="stop-color:rgb(239,171,51);stop-opacity: 1"/>
<stop offset="31.17316%" style="stop-color:rgb(160,100,4);stop-opacity: 1"/>
<stop offset="73.74296%" style="stop-color:rgb(239,171,51);stop-opacity: 1"/>
<stop offset="99.99994%" style="stop-color:rgb(160,100,4);stop-opacity: 1"/>
</linearGradient>
<path style="stroke: none; stroke-width: 1; stroke-dasharray: none; stroke-linecap: butt; stroke-dashoffset: 0; stroke-linejoin: miter; stroke-miterlimit: 4; fill: url(#SVGID_74_1310); fill-rule: nonzero; opacity: 1;"  paint-order="stroke"  transform=" translate(-500.34146345, -572.76394275)" d="M 517.6454185 568.878933 L 506.9508384 576.6489525 L 511.0357993 589.220974 L 500.3414634 581.4509545 L 489.6471275 589.220974 L 493.73184430000003 576.6489525 L 483.03750840000004 568.878933 L 496.2565025 568.878933 L 500.3414634 556.3069115 L 504.4264243 568.878933 L 517.6454184 568.878933 Z" stroke-linecap="round" />
</g>
		<g transform="matrix(0.6335896516271974 0 0 0.6335896516271974 3.167946260874e-8 2.842171e-14)"  >
<linearGradient id="SVGID_75_1311" gradientUnits="userSpaceOnUse" gradientTransform="matrix(1 0 0 1 0 0)"  x1="389.9319237" y1="360.3788626" x2="603.4846749" y2="573.3416891">
<stop offset="0%" style="stop-color:rgb(239,171,51);stop-opacity: 1"/>
<stop offset="31.17316%" style="stop-color:rgb(160,100,4);stop-opacity: 1"/>
<stop offset="73.74296%" style="stop-color:rgb(239,171,51);stop-opacity: 1"/>
<stop offset="99.99994%" style="stop-color:rgb(160,100,4);stop-opacity: 1"/>
</linearGradient>
<path style="stroke: none; stroke-width: 1; stroke-dasharray: none; stroke-linecap: butt; stroke-dashoffset: 0; stroke-linejoin: miter; stroke-miterlimit: 4; fill: url(#SVGID_75_1311); fill-rule: nonzero; opacity: 1;"  paint-order="stroke"  transform=" translate(-500.3414633999999, -500.09756095)" d="M 653.9215415 413.7976342 L 639.0216392 413.7976342 L 639.0216392 388.7275658 L 611.9715904 361.6675072 L 538.7115805999999 361.6675072 L 533.8815024999999 367.6675072 L 466.8014243999999 367.6675072 L 461.9715903999999 361.6675072 L 388.71158059999993 361.6675072 L 361.6615317999999 388.7275658 L 361.6615317999999 413.7976342 L 346.75161969999994 413.7976342 L 334.04141459999994 422.2976342 L 378.6615317999999 422.2976342 L 378.6615317999999 398.1075707 L 398.10147319999993 378.6675072 L 602.5814536999999 378.6675072 L 622.0216391999999 398.1075707 L 622.0216391999999 422.2976342 L 666.6415121999999 422.2976342 L 653.9215414999999 413.7976342 Z M 622.0216392 519.3575707 L 622.0216392 551.9575463 L 562.1415122 586.5276147 L 546.1415122 586.5276147 L 613.2716392 547.7676048999999 L 614.0216392 547.3375511999999 L 614.0216392 519.3575706999999 L 611.0216392 519.3575706999999 L 611.0216392 545.6075706999999 L 506.64151219999997 605.8675804999999 L 506.64151219999997 638.5276147 L 518.3214438 631.0176048999999 L 518.3214438 624.5276147 L 633.0216391 558.307644 L 633.0216391 527.7275659 L 645.5414145 519.3575708 L 622.0216391 519.3575708 Z M 389.6615318 545.6075707 L 389.6615318 519.3575707 L 386.6615318 519.3575707 L 386.6615318 547.3375512 L 454.5414146 586.5276147 L 438.5414146 586.5276147 L 378.6615318 551.9575463 L 378.6615318 519.3575707 L 368.2015709 519.3575707 L 367.6615318 518.9475365 L 367.6615318 519.3575707 L 355.1415123 519.3575707 L 367.6615318 527.7275658 L 367.6615318 558.3076439 L 482.36148299999996 624.5276146 L 482.36148299999996 631.0176048 L 494.04141459999994 638.5276146 L 494.04141459999994 605.8675804 L 389.6615317999999 545.6075705999999 Z M 599.2716392 386.6675073 L 540.9715904 386.6675073 C 540.9315513 387.2275659 540.8314537 388.2976343 540.5016197 389.6675073 L 598.0216392 389.6675073 L 611.0216392 402.6675073 L 611.0216392 422.2976343 L 614.0216392 422.2976343 L 614.0216392 401.42751710000005 L 599.2716392 386.66750730000007 Z M 401.4115318 386.6675073 L 386.6615318 401.4275171 L 386.6615318 422.29763429999997 L 389.6615318 422.29763429999997 L 389.6615318 402.66750729999995 L 402.651522 389.66750729999995 L 475.0514243 389.66750729999995 L 477.9315513 386.66750729999995 L 401.41153180000003 386.66750729999995 Z" stroke-linecap="round" />
</g>
		<g transform="matrix(0.6335896516271974 0 0 0.6335896516271974 -0.00001929280489321172 -1.0541007274509866)"  >
<linearGradient id="SVGID_76_1312" gradientUnits="userSpaceOnUse" gradientTransform="matrix(1 0 0 1 0 0)"  x1="352.9368779" y1="580.2828124" x2="647.8992414" y2="355.5214913">
<stop offset="0%" style="stop-color:rgb(239,171,51);stop-opacity: 1"/>
<stop offset="31.17316%" style="stop-color:rgb(160,100,4);stop-opacity: 1"/>
<stop offset="73.74296%" style="stop-color:rgb(239,171,51);stop-opacity: 1"/>
<stop offset="99.99994%" style="stop-color:rgb(160,100,4);stop-opacity: 1"/>
</linearGradient>
<path style="stroke: none; stroke-width: 1; stroke-dasharray: none; stroke-linecap: butt; stroke-dashoffset: 0; stroke-linejoin: miter; stroke-miterlimit: 4; fill: url(#SVGID_76_1312); fill-rule: nonzero; opacity: 1;"  paint-order="stroke"  transform=" translate(-500.3414329, -498.43386469999996)" d="M 510.6417259 608.1770287 L 541.213015 590.5276146000001 L 563.213015 590.5276146000001 L 626.0216088000001 554.2668724000001 L 626.0216088000001 523.3576927000001 L 632.3614526000001 523.3576927000001 L 629.0216088000001 525.5901146000001 L 629.0216088000001 555.9983177000001 L 514.3214135000001 622.2180443000002 L 514.3214135000001 628.8342552000003 L 510.64172600000006 631.2004661000003 L 510.64172600000006 608.1770286000003 Z M 486.3614524 628.8342553 L 486.3614524 622.2180443999999 L 371.6612571 555.9983178 L 371.6612571 525.5901147 L 368.3214133 523.3576928 L 374.6612571 523.3576928 L 374.6612571 554.2668725 L 437.4688743 590.5276147 L 459.4698509 590.5276147 L 490.04114 608.1770288 L 490.04114 631.2004663 L 486.3614525 628.8342554 Z M 626.0216087 418.2981225 L 626.0216087 396.45046629999996 L 604.2384056 374.6672632 L 396.44446029999995 374.6672632 L 374.66125719999997 396.45046629999996 L 374.66125719999997 418.2981225 L 365.66125719999997 418.7981225 L 365.66125719999997 390.38406 L 390.369265 365.66726309999996 L 460.056765 365.66726309999996 L 464.88684309999996 371.66726309999996 L 535.7969992999999 371.66726309999996 L 540.6270774 365.66726309999996 L 610.3145774 365.66726309999996 L 635.0216085999999 390.38406 L 635.0216085999999 418.7981225 L 626.0216085999999 418.2981225 Z" stroke-linecap="round" />
</g>
		<g transform="matrix(0.6335896516271974 0 0 0.6335896516271974 0 -24.24250545695574)"  >
<linearGradient id="SVGID_77_1313" gradientUnits="userSpaceOnUse" gradientTransform="matrix(1 0 0 1 0 0)"  x1="500.3414634" y1="363.8311834" x2="500.3414634" y2="542.7885687">
<stop offset="59.92109%" style="stop-color:rgb(230,230,230);stop-opacity: 1"/>
<stop offset="75.79243%" style="stop-color:rgb(95,95,95);stop-opacity: 1"/>
</linearGradient>
<path style="stroke: none; stroke-width: 1; stroke-dasharray: none; stroke-linecap: butt; stroke-dashoffset: 0; stroke-linejoin: miter; stroke-miterlimit: 4; fill: url(#SVGID_77_1313); fill-rule: nonzero; opacity: 1;"  paint-order="stroke"  transform=" translate(-500.34146334999997, -461.83540595000005)" d="M 551.4330161 537.4441186 L 513.769686 495.3984643 L 560.1146567 457.6162377 L 543.4740317 443.0721703 L 551.7884848 436.29739 L 718.4198325 436.29739 L 703.1649497 447.9162865 L 646.3971273999999 447.9162865 L 636.8395102 453.944851 L 592.590975 453.944851 L 579.5462973 463.8462182 L 682.2486899 463.8462182 L 665.4540122000001 476.6377221 L 611.3631919000001 476.6377221 L 603.6764243 481.4819604 L 556.3126548 481.4819604 L 543.2682212 491.3832055 L 646.1009849 491.3832055 L 627.7550375999999 505.35903559999997 L 576.3290122 505.35903559999997 L 570.5253012999999 509.01882559999996 L 550.1031821999999 509.01882559999996 L 561.3109458999999 521.6087914 L 601.7696860999998 521.6087914 L 551.4330161999999 537.4441185 Z M 424.3539146 505.3590356 L 430.1576255 509.0188256 L 450.57974459999997 509.0188256 L 439.3719809 521.6087914 L 398.91324069999996 521.6087914 L 449.2496665 537.4441185 L 486.91324069999996 495.3984641999999 L 440.56802589999995 457.6162375999999 L 457.2088949999999 443.0721701999999 L 448.89444189999995 436.2973898999999 L 282.26309419999995 436.2973898999999 L 297.51773289999994 447.91628639999993 L 354.28579929999995 447.91628639999993 L 363.84341649999993 453.94485089999995 L 408.0919516999999 453.94485089999995 L 421.1363852999999 463.84621809999993 L 318.4342368999999 463.84621809999993 L 335.22891459999994 476.63772199999994 L 389.31973489999996 476.63772199999994 L 397.00650249999995 481.4819602999999 L 444.37027199999994 481.4819602999999 L 457.41470559999993 491.3832053999999 L 354.5816977999999 491.3832053999999 L 372.9278891999999 505.3590354999999 L 424.35391459999994 505.3590354999999 Z M 539.4247231 428.3232783 C 535.0210124 425.3092876 514.7165461000001 401.40080150000006 514.7165461000001 401.40080150000006 C 526.9867699000001 396.15113900000006 526.9867699000001 386.2266933000001 526.9867699000001 386.2266933000001 L 490.06626290000014 392.8211676000001 L 480.04740170000014 401.25796090000006 L 466.07418260000014 401.52172900000005 L 458.5642300000001 413.06868700000007 L 482.69725720000014 413.06868700000007 C 482.85497700000013 422.25309390000007 480.14262890000015 431.1495202000001 475.0985703000001 438.60671920000004 C 472.9600193000001 441.76842010000007 470.4102605000001 444.67663300000004 467.4693133000001 447.22990870000007 L 458.56423010000015 454.9610208000001 L 460.06811430000016 456.2766152000001 L 480.71507340000016 474.3378348000001 L 499.83677630000017 491.0653345000001 L 500.53853480000015 490.4987064000001 L 540.6448200000002 458.1036492000001 L 522.7524120000002 443.1032222000001 L 528.2209344000001 443.3671256000001 L 538.7705782000002 443.8761305000001 L 531.2779396000002 435.9027575000001 L 519.2122376000002 423.06333560000013 L 539.4247232000002 428.32327830000014 Z" stroke-linecap="round" />
</g>
		<g transform="matrix(0.6335896516271974 0 0 0.6335896516271974 -0.00001932448429897704 -24.142998586514096)"  >
<linearGradient id="SVGID_78_1314" gradientUnits="userSpaceOnUse" gradientTransform="matrix(1 0 0 1 0 0)"  x1="500.3414329" y1="429.7187171" x2="500.3414329" y2="521.4000466">
<stop offset="11.56419%" style="stop-color:rgb(230,230,230);stop-opacity: 1"/>
<stop offset="100%" style="stop-color:rgb(95,95,95);stop-opacity: 1"/>
</linearGradient>
<path style="stroke: none; stroke-width: 1; stroke-dasharray: none; stroke-linecap: butt; stroke-dashoffset: 0; stroke-linejoin: miter; stroke-miterlimit: 4; fill: url(#SVGID_78_1314); fill-rule: nonzero; opacity: 1;"  paint-order="stroke"  transform=" translate(-500.34143285000005, -461.99245850000005)" d="M 518.1016868 495.7375756 L 564.7647727000001 457.69656000000003 L 548.1241477000001 443.1526147 L 552.8555930000001 439.29714590000003 L 709.5303977000001 439.29714590000003 L 702.1524680000001 444.9162865 L 645.5303977000001 444.9162865 L 635.9727805000001 450.94460680000003 L 591.5811789000002 450.94460680000003 L 570.6309836000001 466.845974 L 673.3594992000002 466.845974 L 664.4415304000001 473.6379662 L 610.4971945000002 473.6379662 L 602.8106711000001 478.4817162 L 555.3028586000001 478.4817162 L 534.3546164000002 494.3830834 L 637.2120383000001 494.3830834 L 626.7423117000002 502.3586693 L 575.4620383000001 502.3586693 L 569.6583274000001 506.0188255 L 543.4171165 506.0188255 L 559.9649681000001 524.6086693 L 582.237429 524.6086693 L 552.3770774 534.002224 L 518.1016867999999 495.73757559999996 Z M 418.4454368 524.6086694 L 440.7178977 524.6086694 L 457.26770239999996 506.01882560000007 L 431.02453829999996 506.01882560000007 L 425.22082739999996 502.35866940000005 L 373.94055399999996 502.35866940000005 L 363.47082739999996 494.38308350000005 L 466.33020239999996 494.38308350000005 L 445.38000709999994 478.4817163000001 L 397.87317119999994 478.4817163000001 L 390.18567119999994 473.6379663000001 L 336.24133529999995 473.6379663000001 L 327.32434309999996 466.8459741000001 L 430.05090559999996 466.8459741000001 L 409.1016868 450.9446069000001 L 364.7110618 450.9446069000001 L 355.1534446 444.9162866000001 L 298.5303977 444.9162866000001 L 291.152468 439.2971460000001 L 447.8272727 439.2971460000001 L 452.558718 443.1526148000001 L 435.918093 457.6965601000001 L 482.5811789 495.7375757000001 L 448.3057883 534.0022241000001 L 418.4454367 524.6086694000002 Z M 463.1309837 454.9699975 L 469.4356712 449.49538809999996 C 472.5206321 446.81765369999994 475.2628196 443.7190209 477.5841087 440.28738029999994 C 483.0587181 432.19363029999994 485.8634056 422.76394279999994 485.6973899 413.0168724999999 L 485.6466087 410.06863029999994 L 464.0938743 410.06863029999994 L 467.72180399999996 404.49148189999994 L 481.16613989999996 404.2375756999999 L 491.38488989999996 395.63406009999994 L 523.0216087 389.98269289999996 C 521.8507103 392.65652099999994 519.2618431 396.19265379999996 513.5372337 398.6428491 L 509.7979759 400.2424585 L 512.4298118 403.3430444 C 513.8204368 404.9787866 522.3975852000001 415.0510522 529.3907493 422.6125756 L 509.90637430000004 417.5422631 L 531.5020774000001 440.5217553 L 513.9942649000001 439.6750756 L 535.9239524000001 458.0608178 L 499.9132102000001 487.1467553 L 463.1309836000001 454.9699975 Z" stroke-linecap="round" />
</g>
</g>
</g>
<g transform="matrix(1.9211538461538462 0 0 1.9211538461538462 638.9053175330529 663.9724973367149)" id="text-logo"  >
<g style=""  paint-order="stroke"   >
		<g transform="matrix(1 0 0 1 0 0)" id="text-logo-path-0"  >
<path style="stroke: none; stroke-width: 0; stroke-dasharray: none; stroke-linecap: butt; stroke-dashoffset: 0; stroke-linejoin: miter; stroke-miterlimit: 4; fill: rgb(255,255,255); fill-rule: nonzero; opacity: 1;"  paint-order="stroke"  transform=" translate(-137.25000000000003, 20.02)" d="M 10.51 0 L 0.28 0 L 10.48 -40.04 L 28.21 -40.04 L 39.22 0 L 24.1 0 L 22.23 -8.52 L 12.29 -8.52 L 10.51 0 Z M 17.39 -33.81 L 13.51 -15.15 L 21.61 -15.15 L 18.27 -33.81 L 17.39 -33.81 Z M 58.72 0 L 44.9 0 L 44.9 -40.04 L 58.83 -40.04 Q 63.99 -40.04 68.1 -38.84 Q 72.2 -37.64 75.05 -35.19 Q 77.89 -32.74 79.41 -29.04 Q 80.92 -25.35 80.92 -20.36 L 80.92 -20.36 Q 80.92 -16.57 80.15 -13.58 Q 79.37 -10.59 77.94 -8.33 Q 76.51 -6.06 74.48 -4.49 Q 72.46 -2.92 69.99 -1.91 Q 67.53 -0.91 64.68 -0.45 Q 61.84 0 58.72 0 L 58.72 0 Z M 57.59 -31.78 L 57.59 -9.06 L 58.44 -9.06 Q 60.65 -9.06 62.46 -9.47 Q 64.27 -9.88 65.56 -11.1 Q 66.85 -12.32 67.54 -14.53 Q 68.24 -16.74 68.24 -20.36 L 68.24 -20.36 Q 68.24 -23.65 67.61 -25.84 Q 66.99 -28.04 65.77 -29.35 Q 64.56 -30.67 62.77 -31.22 Q 60.99 -31.78 58.69 -31.78 L 58.69 -31.78 L 57.59 -31.78 Z M 98.13 0 L 89.07 0 L 89.07 -40.04 L 100.85 -40.04 L 110.82 -24.47 L 120.78 -40.04 L 132.85 -40.04 L 132.85 0 L 119.88 0 L 119.88 -21.75 L 110.53 -5.92 L 107.79 -5.92 L 98.13 -21.75 L 98.13 0 Z M 155.8 0 L 143.12 0 L 143.12 -40.04 L 155.8 -40.04 L 155.8 0 Z M 178.73 0 L 166.04 0 L 166.04 -40.04 L 184.05 -40.04 Q 188.33 -40.04 191.58 -38.93 Q 194.84 -37.81 197.01 -35.98 Q 199.17 -34.15 200.28 -31.85 Q 201.38 -29.54 201.38 -27.19 L 201.38 -27.19 Q 201.38 -25.35 201.02 -23.55 Q 200.65 -21.75 199.71 -20.15 Q 198.78 -18.55 197.15 -17.26 Q 195.52 -15.97 193 -15.18 L 193 -15.18 Q 193.37 -13.99 194.25 -12.23 Q 195.12 -10.48 196.29 -8.44 Q 197.45 -6.4 198.78 -4.22 Q 200.11 -2.04 201.38 0 L 201.38 0 L 186.88 0 Q 185.67 -2.75 184.39 -6.16 Q 183.12 -9.57 182.35 -13.59 L 182.35 -13.59 L 178.73 -13.59 L 178.73 0 Z M 178.73 -33.53 L 178.73 -19.94 L 180.88 -19.94 Q 183.03 -19.94 184.52 -20.5 Q 186.01 -21.07 186.94 -21.98 Q 187.87 -22.88 188.29 -24.02 Q 188.7 -25.15 188.7 -26.28 L 188.7 -26.28 Q 188.7 -28.52 188.07 -29.93 Q 187.45 -31.35 186.37 -32.16 Q 185.3 -32.96 183.88 -33.25 Q 182.47 -33.53 180.85 -33.53 L 180.85 -33.53 L 178.73 -33.53 Z M 213.55 0 L 203.32 0 L 213.52 -40.04 L 231.25 -40.04 L 242.26 0 L 227.14 0 L 225.27 -8.52 L 215.33 -8.52 L 213.55 0 Z M 220.43 -33.81 L 216.55 -15.15 L 224.65 -15.15 L 221.31 -33.81 L 220.43 -33.81 Z M 274.22 0 L 247.94 0 L 247.94 -40.04 L 260.63 -40.04 L 260.63 -8.16 L 274.22 -8.16 L 274.22 0 Z" stroke-linecap="round" />
</g>
</g>
</g>
<g transform="matrix(1.9211538461538462 0 0 1.9211538461538462 639.4342201923077 748.0559853301044)" id="tagline-87d3add8-92e1-4865-a867-6c4932967835-logo"  >
<g style=""  paint-order="stroke"   >
		<g transform="matrix(1 0 0 1 0 0)" id="tagline-87d3add8-92e1-4865-a867-6c4932967835-logo-path-0"  >
<path style="stroke: none; stroke-width: 0; stroke-dasharray: none; stroke-linecap: butt; stroke-dashoffset: 0; stroke-linejoin: miter; stroke-miterlimit: 4; fill: rgb(233,165,47); fill-rule: nonzero; opacity: 1;"  paint-order="stroke"  transform=" translate(-113.395, 10.495000000000001)" d="M 16.21 -16.31 L 16.21 -21.2 L 0.37 -21.2 L 0.37 -16.31 L 5.74 -16.31 L 5.74 0 L 10.88 0 L 10.88 -16.31 Z M 38.44 -6.82 L 42.25 0 L 48.14 0 L 43.71 -8 C 45.76 -9.33 46.93 -11.59 46.93 -14.01 C 46.93 -18.01 43.74 -21.2 39.77 -21.2 L 30.78 -21.2 L 30.78 0 L 35.96 0 L 35.96 -6.82 Z M 35.96 -11.72 L 35.96 -16.31 L 39.77 -16.31 C 41.08 -16.31 42.07 -15.31 42.07 -14.01 C 42.07 -12.77 41.01 -11.72 39.77 -11.72 Z M 76.63 0 L 82.15 0 L 74.37 -21.2 L 68.85 -21.2 L 61.1 0 L 66.62 0 L 67.98 -3.69 L 75.27 -3.69 Z M 69.75 -8.59 L 71.64 -13.7 L 73.47 -8.59 Z M 96.53 -21.2 L 96.53 0 L 101.71 0 L 101.71 -21.2 Z M 130.01 -21.2 L 130.01 -10.42 L 123.13 -21.2 L 117.96 -21.2 L 117.96 0 L 123.13 0 L 123.13 -12.12 L 130.88 0 L 135.19 0 L 135.19 -21.2 Z M 151.4 -21.2 L 151.4 0 L 156.58 0 L 156.58 -21.2 Z M 184.88 -21.2 L 184.88 -10.42 L 178 -21.2 L 172.83 -21.2 L 172.83 0 L 178 0 L 178 -12.12 L 185.75 0 L 190.06 0 L 190.06 -21.2 Z M 226.42 -9.73 L 226.42 -11.84 L 214.71 -11.84 L 214.71 -6.94 L 220.16 -6.94 C 219.08 -5.55 217.43 -4.74 215.67 -4.74 C 212.51 -4.74 209.87 -7.38 209.87 -10.51 C 209.87 -13.67 212.54 -16.27 215.67 -16.27 C 217.59 -16.27 219.11 -15.44 220.29 -13.92 L 224.32 -17.11 C 222.21 -19.84 219.14 -21.42 215.67 -21.42 C 209.59 -21.42 204.72 -16.52 204.72 -10.51 C 204.72 -4.46 209.68 0.43 215.67 0.43 C 221.31 0.43 226.42 -3.97 226.42 -9.73 Z" stroke-linecap="round" />
</g>
</g>
</g>
</svg>